<svg viewBox="-168 -168 336 336" xmlns="http://www.w3.org/2000/svg">
  <defs>
    <linearGradient id="fGold" x1="20%" y1="0%" x2="80%" y2="100%">
      <stop offset="0%" stop-color="#FFE87A"/>
      <stop offset="40%" stop-color="#E8A800"/>
      <stop offset="100%" stop-color="#B87800"/>
    </linearGradient>
    <linearGradient id="fRing" x1="0%" y1="0%" x2="100%" y2="100%">
      <stop offset="0%" stop-color="#FFE050"/>
      <stop offset="100%" stop-color="#E8A800"/>
    </linearGradient>
  </defs>
  <!-- Black background -->
  <rect x="-168" y="-168" width="336" height="336" fill="#000000"/>
  <!-- Outer rings -->
  <circle cx="0" cy="0" r="164" fill="none" stroke="url(#fRing)" stroke-width="2.5"/>
  <circle cx="0" cy="0" r="157" fill="none" stroke="#E4BC50" stroke-width="1" opacity="0.65"/>
  <!-- Compass dots -->
  <circle cx="164" cy="0" r="3.2" fill="#E8A800"/>
  <circle cx="0" cy="-164" r="3.2" fill="#E8A800"/>
  <circle cx="-164" cy="0" r="3.2" fill="#E8A800"/>
  <circle cx="0" cy="164" r="3.2" fill="#E8A800"/>
  <!-- Chedi symbol -->
  <g transform="translate(0, -149.201) scale(1.94980)">
    <polygon points="0,-4 -3,0 0,4 3,0" fill="#F2D980"/>
    <rect x="-2" y="4" width="4" height="38" fill="url(#fGold)"/>
    <polygon points="0,42 -16,78 16,78" fill="url(#fGold)"/>
    <rect x="-18" y="78" width="36" height="6" rx="1" fill="#C48A00"/>
    <rect x="-22" y="84" width="44" height="9" fill="url(#fGold)"/>
    <rect x="-25" y="93" width="50" height="4" fill="#C48A00"/>
    <rect x="-30" y="97" width="60" height="9" fill="url(#fGold)"/>
    <rect x="-33" y="106" width="66" height="4" fill="#C48A00"/>
    <rect x="-38" y="110" width="76" height="9" fill="url(#fGold)"/>
    <rect x="-44" y="119" width="88" height="11" fill="url(#fGold)"/>
    <rect x="-52" y="130" width="104" height="8" fill="#C48A00"/>
  </g>
</svg>
